<?xml version="1.0" standalone="no"?>
<!DOCTYPE svg PUBLIC "-//W3C//DTD SVG 20010904//EN"
 "http://www.w3.org/TR/2001/REC-SVG-20010904/DTD/svg10.dtd">
<svg version="1.0" xmlns="http://www.w3.org/2000/svg"
 width="2048.000000pt" height="2048.000000pt" viewBox="0 0 2048.000000 2048.000000"
 preserveAspectRatio="xMidYMid meet">
<metadata>
Created by potrace 1.14, written by Peter Selinger 2001-2017
</metadata>
<g transform="translate(0.000000,2048.000000) scale(0.100000,-0.100000)"
fill="#000000" stroke="none">
<path d="M0 10240 l0 -10240 10240 0 10240 0 0 10240 0 10240 -10240 0 -10240
0 0 -10240z m5325 6016 c224 -34 452 -151 725 -371 117 -94 366 -347 476 -485
92 -114 244 -322 244 -333 0 -3 -48 -24 -107 -48 -163 -65 -618 -296 -797
-404 -702 -423 -1314 -979 -1776 -1615 -147 -202 -155 -214 -189 -267 -18 -29
-36 -53 -41 -53 -9 0 -26 148 -41 354 -16 212 -6 644 21 869 79 673 270 1274
554 1741 205 336 460 559 700 611 80 18 122 18 231 1z m10125 -14 c162 -56
292 -152 447 -329 570 -651 891 -2008 747 -3158 -8 -66 -17 -126 -20 -134 -2
-8 -42 41 -93 117 -530 779 -1189 1400 -1991 1877 -196 116 -489 267 -690 355
-80 34 -147 64 -149 66 -10 9 162 247 285 394 368 443 784 745 1124 819 115
25 255 22 340 -7z m-6802 -1055 c244 -367 362 -755 362 -1185 0 -87 -5 -196
-10 -242 -27 -223 -95 -464 -185 -658 l-48 -102 -16 47 c-9 27 -81 160 -159
297 l-143 249 17 81 c21 108 30 405 15 521 -46 340 -195 666 -425 925 l-75 85
57 13 c128 31 450 90 488 91 l40 1 82 -123z m3477 74 c110 -22 233 -47 273
-56 l73 -17 -59 -61 c-196 -206 -347 -498 -412 -803 -16 -73 -23 -150 -27
-290 -5 -167 -3 -209 17 -330 l22 -139 -138 -240 c-75 -132 -145 -265 -154
-295 l-17 -55 -45 96 c-85 180 -143 361 -180 563 -20 104 -23 155 -23 366 1
211 4 262 23 368 49 267 147 525 284 747 73 117 126 185 146 185 10 0 107 -18
217 -39z m-4399 -153 l19 -23 -25 20 c-14 11 -27 21 -29 22 -2 2 0 3 6 3 5 0
18 -10 29 -22z m-2656 -1381 c0 -2 -12 -14 -27 -28 l-28 -24 24 28 c23 25 31
32 31 24z m-220 -332 c195 -609 741 -1067 1415 -1186 107 -19 165 -23 325 -23
216 0 292 9 488 59 281 72 564 214 756 378 l59 51 21 -30 c97 -135 235 -214
372 -214 30 0 54 -3 54 -8 0 -8 -83 -83 -189 -171 -267 -220 -669 -410 -1038
-490 -212 -45 -309 -56 -538 -55 -262 0 -427 21 -660 86 -630 174 -1158 598
-1441 1155 l-54 105 45 57 c86 109 344 395 351 388 1 -1 17 -47 34 -102z
m10893 -25 c53 -55 139 -152 192 -214 l96 -114 -52 -104 c-214 -426 -577 -774
-1044 -999 -674 -325 -1485 -316 -2173 24 -219 109 -456 273 -590 410 l-53 54
85 5 c71 5 99 12 160 41 72 34 149 98 193 161 l20 29 69 -55 c262 -210 587
-351 936 -404 171 -26 458 -24 612 4 388 72 702 230 982 495 186 176 362 456
436 694 12 40 26 73 29 73 4 0 50 -45 102 -100z m-8113 -274 c0 -2 -8 -10 -17
-17 -16 -13 -17 -12 -4 4 13 16 21 21 21 13z m95 -136 c3 -6 -1 -7 -9 -4 -18
7 -21 14 -7 14 6 0 13 -4 16 -10z m7365 -13 c0 -2 -10 -12 -22 -23 l-23 -19
19 23 c18 21 26 27 26 19z m1110 -137 c0 -5 -2 -10 -4 -10 -3 0 -8 5 -11 10
-3 6 -1 10 4 10 6 0 11 -4 11 -10z m-1690 -264 c0 -2 -7 -7 -16 -10 -8 -3 -12
-2 -9 4 6 10 25 14 25 6z m-5790 -59 c0 -2 -10 -12 -22 -23 l-23 -19 19 23
c18 21 26 27 26 19z m535 -275 c-3 -3 -11 0 -18 7 -9 10 -8 11 6 5 10 -3 15
-9 12 -12z m3036 -249 c13 -16 12 -17 -3 -4 -17 13 -22 21 -14 21 2 0 10 -8
17 -17z m44 -31 c-3 -3 -11 0 -18 7 -9 10 -8 11 6 5 10 -3 15 -9 12 -12z
m1032 -418 c-3 -3 -12 -4 -19 -1 -8 3 -5 6 6 6 11 1 17 -2 13 -5z m500 -50
c-3 -3 -12 -4 -19 -1 -8 3 -5 6 6 6 11 1 17 -2 13 -5z m-1942 -339 c958 -30
1436 -60 1970 -126 219 -27 511 -82 617 -116 l83 -27 -55 -8 c-258 -39 -516
-141 -685 -273 l-70 -54 -7 42 c-9 60 -22 90 -60 132 -66 76 -57 75 -571 75
-503 0 -500 0 -563 -61 -18 -17 -40 -48 -50 -70 -9 -22 -20 -38 -23 -36 -96
54 -225 99 -356 126 -201 40 -337 46 -940 43 l-570 -4 -48 -25 c-88 -48 -123
-118 -112 -220 10 -87 10 -2713 0 -2814 -6 -63 -4 -82 10 -110 l18 -33 -29 19
c-16 10 -67 44 -113 74 -84 56 -84 56 -161 56 l-77 0 -102 -68 c-55 -37 -101
-65 -101 -63 0 2 7 21 16 42 12 29 14 52 8 94 -7 52 -10 2671 -3 2818 4 75
-16 125 -68 174 -61 58 -62 58 -548 58 -355 0 -452 -3 -479 -14 -87 -36 -154
-141 -141 -220 4 -23 9 -211 11 -418 l5 -378 -191 0 -190 0 0 358 c0 219 4
372 11 395 24 88 -32 207 -120 254 l-44 23 -444 0 c-378 0 -449 -2 -481 -16
-66 -27 -110 -81 -136 -165 l-11 -37 -90 60 c-158 105 -327 175 -530 219 -115
24 -460 38 -578 22 -80 -11 -76 -3 13 25 414 131 1365 217 2765 252 237 6 536
12 665 14 506 7 2109 -5 2555 -19z m5266 -278 c-10 -9 -11 -8 -5 6 3 10 9 15
12 12 3 -3 0 -11 -7 -18z m-1720 -60 c-10 -9 -11 -8 -5 6 3 10 9 15 12 12 3
-3 0 -11 -7 -18z m-9039 -178 c445 -81 780 -355 918 -751 l29 -83 -2 383 -2
382 375 0 375 0 -3 -515 -2 -515 420 0 420 0 -2 515 -3 515 380 0 380 0 0
-1420 0 -1420 -380 0 -380 0 3 565 2 565 -420 0 -420 0 2 -565 3 -565 -375 0
-375 0 2 392 c0 216 -1 384 -4 373 -37 -143 -119 -322 -201 -431 -178 -240
-433 -375 -782 -415 -144 -16 -415 -6 -542 21 -458 96 -775 369 -939 809 l-28
76 2 -413 2 -412 -777 0 c-734 0 -776 1 -772 18 3 9 -61 210 -141 446 -80 236
-145 431 -145 433 0 1 -56 3 -125 3 l-126 0 3 -450 3 -450 -370 0 -370 0 0
1421 0 1420 645 -4 645 -3 108 -27 c287 -70 520 -247 623 -473 l18 -39 4 40
c2 22 2 145 0 273 l-3 232 388 0 387 0 0 -412 1 -413 24 73 c120 350 375 625
700 751 244 95 549 121 827 70z m8668 -2 c166 -36 277 -76 400 -144 239 -131
421 -348 505 -606 l22 -68 6 77 c9 103 7 556 -2 622 l-7 52 381 0 381 0 -8
-62 c-5 -35 -7 -267 -6 -515 l3 -453 423 0 422 0 -1 458 c0 251 -4 483 -8 515
l-7 57 385 0 386 0 0 -1420 0 -1420 -387 0 -387 0 7 33 c4 17 7 271 7 562 l0
530 -420 0 -420 0 -3 -490 c-2 -269 1 -523 6 -562 l8 -73 -384 0 c-362 0 -384
1 -376 18 9 19 15 581 7 677 l-5 60 -24 -83 c-118 -407 -465 -685 -938 -751
-126 -18 -349 -14 -479 9 -423 72 -765 297 -947 623 -18 32 -50 106 -71 165
l-39 107 3 -413 2 -412 -777 0 -778 0 0 31 c0 56 -57 234 -239 749 l-41 115
-119 3 -119 3 -7 -268 c-8 -269 -2 -583 10 -615 7 -17 -15 -18 -373 -18 l-380
0 9 34 c6 21 8 576 7 1418 l-3 1385 299 6 c721 16 942 2 1191 -74 250 -77 409
-201 506 -393 l39 -78 1 163 c1 223 -1 341 -7 362 -5 16 18 17 394 17 l400 0
-9 -42 c-5 -24 -8 -207 -7 -408 l3 -365 23 75 c57 185 178 372 319 497 184
163 458 286 718 323 87 13 428 3 505 -13z m-6370 -2492 l0 -305 -47 0 c-120
-1 -214 -98 -258 -265 -28 -108 -15 -209 40 -320 43 -87 99 -152 179 -210 66
-47 180 -97 264 -117 l51 -11 6 -66 c37 -386 107 -680 220 -919 227 -479 643
-730 1131 -683 69 7 164 23 212 37 410 119 700 479 842 1044 31 124 65 321 75
435 13 159 9 150 66 163 140 33 286 115 369 209 76 87 130 220 130 323 l0 40
468 2 c257 2 591 1 742 -1 295 -4 357 2 446 43 66 31 101 81 112 159 l7 57 78
-59 c111 -83 235 -145 393 -197 214 -70 328 -88 585 -88 l216 -1 -4 -245 c-16
-1020 -75 -1651 -184 -1990 -31 -94 -96 -216 -133 -247 -203 -172 -1143 -329
-2451 -408 -137 -8 -288 -17 -335 -20 -295 -19 -1065 -35 -1675 -35 -1281 0
-2425 55 -3240 155 -761 94 -1199 203 -1310 326 -140 155 -232 601 -275 1324
-14 244 -30 801 -30 1071 l0 221 102 -38 c521 -198 1178 -144 1561 127 26 19
49 34 50 34 2 0 9 -17 15 -38 15 -48 80 -116 129 -134 30 -10 135 -13 478 -13
407 0 443 1 477 18 78 39 132 121 130 197 -1 25 -5 172 -8 326 l-5 282 43 16
c63 24 311 104 326 105 9 1 12 -66 12 -304z m2978 -245 c20 -59 20 -60 1 -60
-14 0 -19 7 -19 29 0 16 -3 43 -6 60 -10 51 3 35 24 -29z m-884 -401 c93 -7
191 -7 339 2 115 6 235 9 268 6 32 -3 74 -2 93 3 64 14 79 -45 24 -99 -129
-126 -473 -100 -793 60 -55 27 -91 47 -81 44 11 -3 78 -10 150 -16z m-1499 1
l400 -1 -69 -35 c-87 -45 -248 -98 -363 -120 -102 -19 -237 -15 -321 11 -58
18 -132 77 -132 105 0 42 11 52 49 46 20 -3 216 -6 436 -6z m978 -276 c209
-126 497 -248 670 -284 31 -6 57 -17 57 -23 0 -33 -32 -282 -45 -352 -65 -344
-210 -638 -378 -764 -199 -150 -508 -172 -722 -51 -249 141 -421 509 -480
1028 -9 79 -15 145 -13 146 2 1 50 15 108 30 195 51 409 145 615 270 50 30 91
55 93 55 1 1 44 -24 95 -55z m-7073 -98 c0 -2 -7 -7 -16 -10 -8 -3 -12 -2 -9
4 6 10 25 14 25 6z m14537 -398 c-3 -8 -6 -5 -6 6 -1 11 2 17 5 13 3 -3 4 -12
1 -19z m-7900 -4068 l313 0 0 -221 0 -222 -84 6 c-181 14 -418 96 -565 196
-78 53 -176 145 -220 206 l-35 48 139 -6 c76 -4 279 -7 452 -7z m1332 -22
c-47 -65 -141 -157 -211 -205 -156 -108 -308 -165 -545 -207 l-33 -5 0 219 0
220 328 3 c180 1 362 3 405 5 l78 2 -22 -32z"/>
<path d="M6003 9935 c-89 -24 -141 -55 -201 -119 -65 -70 -111 -158 -147 -283
-35 -121 -45 -188 -52 -358 -9 -243 22 -419 101 -580 101 -204 240 -295 448
-295 143 0 253 36 322 105 42 42 100 157 123 245 9 36 17 100 17 142 l1 78
383 0 382 0 0 275 0 275 -384 0 -384 0 0 68 c0 132 -79 302 -169 366 -118 83
-305 117 -440 81z"/>
<path d="M2800 9545 l0 -305 178 0 c261 0 346 19 421 92 57 56 74 102 79 208
3 89 2 99 -25 150 -34 66 -89 110 -174 139 -56 19 -85 21 -271 21 l-208 0 0
-305z"/>
<path d="M4082 9126 c-58 -125 -175 -264 -286 -341 -31 -21 -56 -42 -56 -46 0
-4 64 -137 141 -295 78 -159 160 -327 183 -374 l41 -85 3 298 c1 163 1 431 0
595 l-3 297 -23 -49z"/>
<path d="M14751 9950 c-220 -32 -400 -213 -474 -479 -19 -68 -21 -103 -21
-341 -1 -228 2 -275 18 -335 68 -255 244 -443 465 -495 82 -19 209 -8 275 24
150 74 245 252 246 463 l0 73 388 2 387 3 3 278 2 277 -388 0 -389 0 -7 79
c-10 129 -46 226 -113 308 -88 109 -240 164 -392 143z"/>
<path d="M11622 9853 l-172 -3 2 -303 3 -302 220 0 c254 0 286 7 366 82 61 57
90 125 90 208 0 184 -107 304 -282 317 -30 2 -132 3 -227 1z"/>
<path d="M12717 9090 c-62 -124 -172 -243 -305 -330 l-23 -15 183 -376 183
-375 3 293 c1 161 1 425 0 586 l-3 293 -38 -76z"/>
</g>
</svg>
